<svg width="295" height="44" viewBox="0 0 295 44" fill="none" xmlns="http://www.w3.org/2000/svg">
<g clip-path="url(#clip0_33_2116)">
<mask id="path-1-outside-1_33_2116" maskUnits="userSpaceOnUse" x="1" y="9" width="162" height="25" fill="black">
<rect fill="white" x="1" y="9" width="162" height="25"/>
<path d="M13.9073 33.32C12.2006 33.32 10.6113 33.0427 9.13925 32.488C7.68858 31.912 6.41925 31.112 5.33125 30.088C4.26458 29.0427 3.43258 27.816 2.83525 26.408C2.23792 25 1.93925 23.464 1.93925 21.8C1.93925 20.136 2.23792 18.6 2.83525 17.192C3.43258 15.784 4.27525 14.568 5.36325 13.544C6.45125 12.4987 7.72058 11.6987 9.17125 11.144C10.6219 10.568 12.2113 10.28 13.9393 10.28C15.7739 10.28 17.4486 10.6 18.9633 11.24C20.4779 11.8587 21.7579 12.7867 22.8033 14.024L20.1153 16.552C19.3046 15.6773 18.3979 15.0267 17.3953 14.6C16.3926 14.152 15.3046 13.928 14.1313 13.928C12.9579 13.928 11.8806 14.12 10.8993 14.504C9.93925 14.888 9.09658 15.432 8.37125 16.136C7.66725 16.84 7.11258 17.672 6.70725 18.632C6.32325 19.592 6.13125 20.648 6.13125 21.8C6.13125 22.952 6.32325 24.008 6.70725 24.968C7.11258 25.928 7.66725 26.76 8.37125 27.464C9.09658 28.168 9.93925 28.712 10.8993 29.096C11.8806 29.48 12.9579 29.672 14.1313 29.672C15.3046 29.672 16.3926 29.4587 17.3953 29.032C18.3979 28.584 19.3046 27.912 20.1153 27.016L22.8033 29.576C21.7579 30.792 20.4779 31.72 18.9633 32.36C17.4486 33 15.7633 33.32 13.9073 33.32ZM36.8165 33.32C35.0672 33.32 33.4565 33.032 31.9845 32.456C30.5125 31.88 29.2325 31.08 28.1445 30.056C27.0565 29.0107 26.2138 27.7947 25.6165 26.408C25.0192 25 24.7205 23.464 24.7205 21.8C24.7205 20.136 25.0192 18.6107 25.6165 17.224C26.2138 15.816 27.0565 14.6 28.1445 13.576C29.2325 12.5307 30.5125 11.72 31.9845 11.144C33.4565 10.568 35.0565 10.28 36.7845 10.28C38.5338 10.28 40.1338 10.568 41.5845 11.144C43.0565 11.72 44.3365 12.5307 45.4245 13.576C46.5125 14.6 47.3552 15.816 47.9525 17.224C48.5498 18.6107 48.8485 20.136 48.8485 21.8C48.8485 23.464 48.5498 25 47.9525 26.408C47.3552 27.816 46.5125 29.032 45.4245 30.056C44.3365 31.08 43.0565 31.88 41.5845 32.456C40.1338 33.032 38.5445 33.32 36.8165 33.32ZM36.7845 29.672C37.9152 29.672 38.9605 29.48 39.9205 29.096C40.8805 28.712 41.7125 28.168 42.4165 27.464C43.1205 26.7387 43.6645 25.9067 44.0485 24.968C44.4538 24.008 44.6565 22.952 44.6565 21.8C44.6565 20.648 44.4538 19.6027 44.0485 18.664C43.6645 17.704 43.1205 16.872 42.4165 16.168C41.7125 15.4427 40.8805 14.888 39.9205 14.504C38.9605 14.12 37.9152 13.928 36.7845 13.928C35.6538 13.928 34.6085 14.12 33.6485 14.504C32.7098 14.888 31.8778 15.4427 31.1525 16.168C30.4485 16.872 29.8938 17.704 29.4885 18.664C29.1045 19.6027 28.9125 20.648 28.9125 21.8C28.9125 22.9307 29.1045 23.976 29.4885 24.936C29.8938 25.896 30.4485 26.7387 31.1525 27.464C31.8565 28.168 32.6885 28.712 33.6485 29.096C34.6085 29.48 35.6538 29.672 36.7845 29.672ZM53.258 33V10.6H56.682L70.73 27.848H69.034V10.6H73.162V33H69.738L55.69 15.752H57.386V33H53.258ZM83.7083 33V14.12H76.2843V10.6H95.2923V14.12H87.8683V33H83.7083ZM102.254 19.912H113.39V23.336H102.254V19.912ZM102.574 29.512H115.214V33H98.4143V10.6H114.766V14.088H102.574V29.512ZM119.852 33V10.6H123.276L137.324 27.848H135.628V10.6H139.756V33H136.332L122.284 15.752H123.98V33H119.852ZM150.302 33V14.12H142.878V10.6H161.886V14.12H154.462V33H150.302Z"/>
</mask>
<path d="M13.9073 33.32C12.2006 33.32 10.6113 33.0427 9.13925 32.488C7.68858 31.912 6.41925 31.112 5.33125 30.088C4.26458 29.0427 3.43258 27.816 2.83525 26.408C2.23792 25 1.93925 23.464 1.93925 21.8C1.93925 20.136 2.23792 18.6 2.83525 17.192C3.43258 15.784 4.27525 14.568 5.36325 13.544C6.45125 12.4987 7.72058 11.6987 9.17125 11.144C10.6219 10.568 12.2113 10.28 13.9393 10.28C15.7739 10.28 17.4486 10.6 18.9633 11.24C20.4779 11.8587 21.7579 12.7867 22.8033 14.024L20.1153 16.552C19.3046 15.6773 18.3979 15.0267 17.3953 14.6C16.3926 14.152 15.3046 13.928 14.1313 13.928C12.9579 13.928 11.8806 14.12 10.8993 14.504C9.93925 14.888 9.09658 15.432 8.37125 16.136C7.66725 16.84 7.11258 17.672 6.70725 18.632C6.32325 19.592 6.13125 20.648 6.13125 21.8C6.13125 22.952 6.32325 24.008 6.70725 24.968C7.11258 25.928 7.66725 26.76 8.37125 27.464C9.09658 28.168 9.93925 28.712 10.8993 29.096C11.8806 29.48 12.9579 29.672 14.1313 29.672C15.3046 29.672 16.3926 29.4587 17.3953 29.032C18.3979 28.584 19.3046 27.912 20.1153 27.016L22.8033 29.576C21.7579 30.792 20.4779 31.72 18.9633 32.36C17.4486 33 15.7633 33.32 13.9073 33.32ZM36.8165 33.32C35.0672 33.32 33.4565 33.032 31.9845 32.456C30.5125 31.88 29.2325 31.08 28.1445 30.056C27.0565 29.0107 26.2138 27.7947 25.6165 26.408C25.0192 25 24.7205 23.464 24.7205 21.8C24.7205 20.136 25.0192 18.6107 25.6165 17.224C26.2138 15.816 27.0565 14.6 28.1445 13.576C29.2325 12.5307 30.5125 11.72 31.9845 11.144C33.4565 10.568 35.0565 10.28 36.7845 10.28C38.5338 10.28 40.1338 10.568 41.5845 11.144C43.0565 11.72 44.3365 12.5307 45.4245 13.576C46.5125 14.6 47.3552 15.816 47.9525 17.224C48.5498 18.6107 48.8485 20.136 48.8485 21.8C48.8485 23.464 48.5498 25 47.9525 26.408C47.3552 27.816 46.5125 29.032 45.4245 30.056C44.3365 31.08 43.0565 31.88 41.5845 32.456C40.1338 33.032 38.5445 33.32 36.8165 33.32ZM36.7845 29.672C37.9152 29.672 38.9605 29.48 39.9205 29.096C40.8805 28.712 41.7125 28.168 42.4165 27.464C43.1205 26.7387 43.6645 25.9067 44.0485 24.968C44.4538 24.008 44.6565 22.952 44.6565 21.8C44.6565 20.648 44.4538 19.6027 44.0485 18.664C43.6645 17.704 43.1205 16.872 42.4165 16.168C41.7125 15.4427 40.8805 14.888 39.9205 14.504C38.9605 14.12 37.9152 13.928 36.7845 13.928C35.6538 13.928 34.6085 14.12 33.6485 14.504C32.7098 14.888 31.8778 15.4427 31.1525 16.168C30.4485 16.872 29.8938 17.704 29.4885 18.664C29.1045 19.6027 28.9125 20.648 28.9125 21.8C28.9125 22.9307 29.1045 23.976 29.4885 24.936C29.8938 25.896 30.4485 26.7387 31.1525 27.464C31.8565 28.168 32.6885 28.712 33.6485 29.096C34.6085 29.48 35.6538 29.672 36.7845 29.672ZM53.258 33V10.6H56.682L70.73 27.848H69.034V10.6H73.162V33H69.738L55.69 15.752H57.386V33H53.258ZM83.7083 33V14.12H76.2843V10.6H95.2923V14.12H87.8683V33H83.7083ZM102.254 19.912H113.39V23.336H102.254V19.912ZM102.574 29.512H115.214V33H98.4143V10.6H114.766V14.088H102.574V29.512ZM119.852 33V10.6H123.276L137.324 27.848H135.628V10.6H139.756V33H136.332L122.284 15.752H123.98V33H119.852ZM150.302 33V14.12H142.878V10.6H161.886V14.12H154.462V33H150.302Z" fill="url(#paint0_linear_33_2116)"/>
<path d="M9.13925 32.488L8.95471 32.9528L8.96295 32.9559L9.13925 32.488ZM5.33125 30.088L4.98121 30.4452L4.98857 30.4521L5.33125 30.088ZM2.83525 26.408L3.29554 26.2127L2.83525 26.408ZM2.83525 17.192L3.29554 17.3873L2.83525 17.192ZM5.36325 13.544L5.70595 13.9081L5.70966 13.9046L5.36325 13.544ZM9.17125 11.144L9.34983 11.6111L9.35577 11.6087L9.17125 11.144ZM18.9633 11.24L18.7686 11.7006L18.7742 11.7029L18.9633 11.24ZM22.8033 14.024L23.1458 14.3882L23.4911 14.0634L23.1852 13.7013L22.8033 14.024ZM20.1153 16.552L19.7485 16.8919L20.0909 17.2613L20.4578 16.9162L20.1153 16.552ZM17.3953 14.6L17.1912 15.0566L17.1995 15.0601L17.3953 14.6ZM10.8993 14.504L10.717 14.0384L10.7136 14.0398L10.8993 14.504ZM8.37125 16.136L8.02297 15.7772L8.0177 15.7824L8.37125 16.136ZM6.70725 18.632L6.24654 18.4375L6.24301 18.4463L6.70725 18.632ZM6.70725 24.968L6.24293 25.1537L6.24663 25.1625L6.70725 24.968ZM8.37125 27.464L8.01766 27.8176L8.02301 27.8228L8.37125 27.464ZM10.8993 29.096L10.7135 29.5603L10.7171 29.5616L10.8993 29.096ZM17.3953 29.032L17.5911 29.4922L17.5992 29.4885L17.3953 29.032ZM20.1153 27.016L20.4601 26.6539L20.0886 26.3002L19.7445 26.6805L20.1153 27.016ZM22.8033 29.576L23.1824 29.9019L23.4922 29.5416L23.1481 29.2139L22.8033 29.576ZM18.9633 32.36L19.1579 32.8206L18.9633 32.36ZM13.9073 33.32V32.82C12.2557 32.82 10.7266 32.5518 9.31556 32.0201L9.13925 32.488L8.96295 32.9559C10.4959 33.5335 12.1455 33.82 13.9073 33.82V33.32ZM9.13925 32.488L9.32377 32.0233C7.92903 31.4695 6.71399 30.7028 5.67393 29.7239L5.33125 30.088L4.98857 30.4521C6.12451 31.5212 7.44813 32.3545 8.95473 32.9527L9.13925 32.488ZM5.33125 30.088L5.68121 29.7309C4.66278 28.7328 3.86776 27.5615 3.29554 26.2127L2.83525 26.408L2.37496 26.6033C2.9974 28.0705 3.86639 29.3525 4.98129 30.4451L5.33125 30.088ZM2.83525 26.408L3.29554 26.2127C2.72664 24.8717 2.43925 23.4029 2.43925 21.8H1.93925H1.43925C1.43925 23.5251 1.74919 25.1283 2.37496 26.6033L2.83525 26.408ZM1.93925 21.8H2.43925C2.43925 20.1971 2.72664 18.7283 3.29554 17.3873L2.83525 17.192L2.37496 16.9967C1.74919 18.4717 1.43925 20.0749 1.43925 21.8H1.93925ZM2.83525 17.192L3.29554 17.3873C3.86646 16.0415 4.66963 14.8834 5.70593 13.9081L5.36325 13.544L5.02057 13.1799C3.88087 14.2526 2.99871 15.5265 2.37496 16.9967L2.83525 17.192ZM5.36325 13.544L5.70966 13.9046C6.74798 12.907 7.95978 12.1425 9.34982 11.611L9.17125 11.144L8.99268 10.677C7.48138 11.2548 6.15452 12.0904 5.01684 13.1834L5.36325 13.544ZM9.17125 11.144L9.35577 11.6087C10.7417 11.0584 12.2677 10.78 13.9393 10.78V10.28V9.78C12.1548 9.78 10.5021 10.0776 8.98673 10.6793L9.17125 11.144ZM13.9393 10.28V10.78C15.7148 10.78 17.3223 11.0894 18.7686 11.7006L18.9633 11.24L19.1579 10.7794C17.5749 10.1106 15.833 9.78 13.9393 9.78V10.28ZM18.9633 11.24L18.7742 11.7029C20.215 12.2914 21.4286 13.1716 22.4213 14.3467L22.8033 14.024L23.1852 13.7013C22.0873 12.4017 20.7409 11.426 19.1523 10.7771L18.9633 11.24ZM22.8033 14.024L22.4607 13.6598L19.7727 16.1878L20.1153 16.552L20.4578 16.9162L23.1458 14.3882L22.8033 14.024ZM20.1153 16.552L20.482 16.2121C19.628 15.2907 18.6644 14.5967 17.591 14.1399L17.3953 14.6L17.1995 15.0601C18.1314 15.4567 18.9812 16.0639 19.7485 16.8919L20.1153 16.552ZM17.3953 14.6L17.5992 14.1435C16.5281 13.6649 15.37 13.428 14.1313 13.428V13.928V14.428C15.2392 14.428 16.2571 14.6391 17.1913 15.0565L17.3953 14.6ZM14.1313 13.928V13.428C12.9026 13.428 11.7627 13.6292 10.7171 14.0384L10.8993 14.504L11.0814 14.9696C11.9985 14.6108 13.0132 14.428 14.1313 14.428V13.928ZM10.8993 14.504L10.7136 14.0398C9.69444 14.4474 8.79622 15.0267 8.02301 15.7772L8.37125 16.136L8.71949 16.4948C9.39695 15.8373 10.1841 15.3286 11.0849 14.9682L10.8993 14.504ZM8.37125 16.136L8.0177 15.7824C7.26596 16.5342 6.67586 17.4209 6.24663 18.4375L6.70725 18.632L7.16787 18.8265C7.5493 17.9231 8.06854 17.1458 8.7248 16.4896L8.37125 16.136ZM6.70725 18.632L6.24301 18.4463C5.83284 19.4717 5.63125 20.5916 5.63125 21.8H6.13125H6.63125C6.63125 20.7044 6.81366 19.7123 7.17149 18.8177L6.70725 18.632ZM6.13125 21.8H5.63125C5.63125 23.0084 5.83284 24.1283 6.24301 25.1537L6.70725 24.968L7.17149 24.7823C6.81366 23.8877 6.63125 22.8956 6.63125 21.8H6.13125ZM6.70725 24.968L6.24663 25.1625C6.67586 26.1791 7.26596 27.0658 8.0177 27.8176L8.37125 27.464L8.7248 27.1104C8.06854 26.4542 7.5493 25.6769 7.16787 24.7735L6.70725 24.968ZM8.37125 27.464L8.02301 27.8228C8.79622 28.5733 9.69444 29.1526 10.7136 29.5602L10.8993 29.096L11.0849 28.6318C10.1841 28.2714 9.39695 27.7627 8.71949 27.1052L8.37125 27.464ZM10.8993 29.096L10.7171 29.5616C11.7627 29.9708 12.9026 30.172 14.1313 30.172V29.672V29.172C13.0132 29.172 11.9985 28.9892 11.0814 28.6304L10.8993 29.096ZM14.1313 29.672V30.172C15.3666 30.172 16.5218 29.9471 17.591 29.4921L17.3953 29.032L17.1995 28.5719C16.2633 28.9703 15.2425 29.172 14.1313 29.172V29.672ZM17.3953 29.032L17.5992 29.4885C18.6714 29.0094 19.6335 28.2938 20.486 27.3515L20.1153 27.016L19.7445 26.6805C18.9757 27.5302 18.1244 28.1586 17.1913 28.5755L17.3953 29.032ZM20.1153 27.016L19.7704 27.3781L22.4584 29.9381L22.8033 29.576L23.1481 29.2139L20.4601 26.6539L20.1153 27.016ZM22.8033 29.576L22.4241 29.2501C21.4304 30.406 20.2141 31.2887 18.7686 31.8994L18.9633 32.36L19.1579 32.8206C20.7417 32.1513 22.0855 31.178 23.1824 29.9019L22.8033 29.576ZM18.9633 32.36L18.7686 31.8994C17.323 32.5103 15.705 32.82 13.9073 32.82V33.32V33.82C15.8215 33.82 17.5742 33.4897 19.1579 32.8206L18.9633 32.36ZM31.9845 32.456L32.1667 31.9904L31.9845 32.456ZM28.1445 30.056L27.7981 30.4166L27.8018 30.4201L28.1445 30.056ZM25.6165 26.408L25.1562 26.6033L25.1573 26.6058L25.6165 26.408ZM25.6165 17.224L26.0757 17.4218L26.0768 17.4193L25.6165 17.224ZM28.1445 13.576L28.4872 13.9401L28.4909 13.9366L28.1445 13.576ZM31.9845 11.144L32.1667 11.6096L31.9845 11.144ZM41.5845 11.144L41.4 11.6087L41.4023 11.6096L41.5845 11.144ZM45.4245 13.576L45.0781 13.9366L45.0818 13.9401L45.4245 13.576ZM47.9525 17.224L47.4922 17.4193L47.4933 17.4218L47.9525 17.224ZM47.9525 26.408L47.4922 26.2127L47.9525 26.408ZM45.4245 30.056L45.0818 29.6919L45.4245 30.056ZM41.5845 32.456L41.4023 31.9904L41.4 31.9913L41.5845 32.456ZM39.9205 29.096L40.1062 29.5602L39.9205 29.096ZM42.4165 27.464L42.7701 27.8176L42.7753 27.8122L42.4165 27.464ZM44.0485 24.968L43.5878 24.7735L43.5857 24.7787L44.0485 24.968ZM44.0485 18.664L43.5841 18.8498L43.5895 18.8622L44.0485 18.664ZM42.4165 16.168L42.0577 16.5163L42.0629 16.5216L42.4165 16.168ZM39.9205 14.504L40.1062 14.0398L39.9205 14.504ZM33.6485 14.504L33.4628 14.0397L33.4592 14.0412L33.6485 14.504ZM31.1525 16.168L30.7989 15.8144L31.1525 16.168ZM29.4885 18.664L29.0278 18.4695L29.0257 18.4747L29.4885 18.664ZM29.4885 24.936L29.0242 25.1217L29.0279 25.1305L29.4885 24.936ZM31.1525 27.464L30.7937 27.8123L30.7989 27.8176L31.1525 27.464ZM33.6485 29.096L33.8342 28.6318L33.6485 29.096ZM36.8165 33.32V32.82C35.1229 32.82 33.5748 32.5414 32.1667 31.9904L31.9845 32.456L31.8023 32.9216C33.3382 33.5226 35.0115 33.82 36.8165 33.82V33.32ZM31.9845 32.456L32.1667 31.9904C30.7507 31.4363 29.526 30.6696 28.4872 29.6919L28.1445 30.056L27.8018 30.4201C28.939 31.4904 30.2743 32.3237 31.8023 32.9216L31.9845 32.456ZM28.1445 30.056L28.4909 29.6954C27.451 28.6963 26.6467 27.5357 26.0757 26.2102L25.6165 26.408L25.1573 26.6058C25.781 28.0537 26.662 29.325 27.7981 30.4166L28.1445 30.056ZM25.6165 26.408L26.0768 26.2127C25.5079 24.8717 25.2205 23.4029 25.2205 21.8H24.7205H24.2205C24.2205 23.5251 24.5304 25.1283 25.1562 26.6033L25.6165 26.408ZM24.7205 21.8H25.2205C25.2205 20.197 25.5079 18.7399 26.0757 17.4218L25.6165 17.224L25.1573 17.0262C24.5304 18.4814 24.2205 20.075 24.2205 21.8H24.7205ZM25.6165 17.224L26.0768 17.4193C26.6477 16.0735 27.4509 14.9154 28.4872 13.9401L28.1445 13.576L27.8018 13.2119C26.6621 14.2846 25.78 15.5585 25.1562 17.0287L25.6165 17.224ZM28.1445 13.576L28.4909 13.9366C29.5294 12.9388 30.7528 12.1629 32.1667 11.6096L31.9845 11.144L31.8023 10.6784C30.2722 11.2771 28.9356 12.1225 27.7981 13.2154L28.1445 13.576ZM31.9845 11.144L32.1667 11.6096C33.5755 11.0584 35.113 10.78 36.7845 10.78V10.28V9.78C35 9.78 33.3375 10.0776 31.8023 10.6784L31.9845 11.144ZM36.7845 10.28V10.78C38.4783 10.78 40.0147 11.0587 41.4 11.6087L41.5845 11.144L41.769 10.6793C40.253 10.0773 38.5894 9.78 36.7845 9.78V10.28ZM41.5845 11.144L41.4023 11.6096C42.8162 12.1629 44.0396 12.9388 45.0781 13.9366L45.4245 13.576L45.7709 13.2154C44.6334 12.1225 43.2968 11.2771 41.7667 10.6784L41.5845 11.144ZM45.4245 13.576L45.0818 13.9401C46.1181 14.9154 46.9213 16.0735 47.4922 17.4193L47.9525 17.224L48.4128 17.0287C47.789 15.5585 46.9069 14.2846 45.7672 13.2119L45.4245 13.576ZM47.9525 17.224L47.4933 17.4218C48.0611 18.7399 48.3485 20.197 48.3485 21.8H48.8485H49.3485C49.3485 20.075 49.0386 18.4814 48.4117 17.0262L47.9525 17.224ZM48.8485 21.8H48.3485C48.3485 23.4029 48.0611 24.8717 47.4922 26.2127L47.9525 26.408L48.4128 26.6033C49.0386 25.1283 49.3485 23.5251 49.3485 21.8H48.8485ZM47.9525 26.408L47.4922 26.2127C46.9213 27.5585 46.1181 28.7166 45.0818 29.6919L45.4245 30.056L45.7672 30.4201C46.9069 29.3474 47.789 28.0735 48.4128 26.6033L47.9525 26.408ZM45.4245 30.056L45.0818 29.6919C44.043 30.6696 42.8183 31.4363 41.4023 31.9904L41.5845 32.456L41.7667 32.9216C43.2947 32.3237 44.63 31.4904 45.7672 30.4201L45.4245 30.056ZM41.5845 32.456L41.4 31.9913C40.014 32.5416 38.4881 32.82 36.8165 32.82V33.32V33.82C38.6009 33.82 40.2537 33.5224 41.769 32.9207L41.5845 32.456ZM36.7845 29.672V30.172C37.9728 30.172 39.0818 29.97 40.1062 29.5602L39.9205 29.096L39.7348 28.6318C38.8392 28.99 37.8575 29.172 36.7845 29.172V29.672ZM39.9205 29.096L40.1062 29.5602C41.1266 29.1521 42.0163 28.5713 42.7701 27.8176L42.4165 27.464L42.0629 27.1104C41.4087 27.7647 40.6344 28.2719 39.7348 28.6318L39.9205 29.096ZM42.4165 27.464L42.7753 27.8122C43.5239 27.0409 44.1032 26.1549 44.5113 25.1573L44.0485 24.968L43.5857 24.7787C43.2258 25.6584 42.7171 26.4364 42.0577 27.1158L42.4165 27.464ZM44.0485 24.968L44.5091 25.1625C44.9431 24.1347 45.1565 23.0117 45.1565 21.8H44.6565H44.1565C44.1565 22.8923 43.9646 23.8813 43.5879 24.7735L44.0485 24.968ZM44.6565 21.8H45.1565C45.1565 20.5885 44.9431 19.4745 44.5075 18.4658L44.0485 18.664L43.5895 18.8622C43.9646 19.7308 44.1565 20.7075 44.1565 21.8H44.6565ZM44.0485 18.664L44.5127 18.4783C44.1046 17.4579 43.5238 16.5682 42.7701 15.8144L42.4165 16.168L42.0629 16.5216C42.7172 17.1758 43.2244 17.9501 43.5843 18.8497L44.0485 18.664ZM42.4165 16.168L42.7753 15.8198C42.0212 15.0429 41.1299 14.4492 40.1062 14.0398L39.9205 14.504L39.7348 14.9682C40.6311 15.3268 41.4038 15.8425 42.0577 16.5162L42.4165 16.168ZM39.9205 14.504L40.1062 14.0398C39.0818 13.63 37.9728 13.428 36.7845 13.428V13.928V14.428C37.8575 14.428 38.8392 14.61 39.7348 14.9682L39.9205 14.504ZM36.7845 13.928V13.428C35.5962 13.428 34.4872 13.63 33.4628 14.0398L33.6485 14.504L33.8342 14.9682C34.7298 14.61 35.7115 14.428 36.7845 14.428V13.928ZM33.6485 14.504L33.4592 14.0412C32.4583 14.4507 31.5707 15.0427 30.7989 15.8144L31.1525 16.168L31.5061 16.5216C32.185 15.8426 32.9613 15.3253 33.8378 14.9668L33.6485 14.504ZM31.1525 16.168L30.7989 15.8144C30.0472 16.5662 29.4571 17.4529 29.0279 18.4695L29.4885 18.664L29.9491 18.8585C30.3306 17.9551 30.8498 17.1778 31.5061 16.5216L31.1525 16.168ZM29.4885 18.664L29.0257 18.4747C28.614 19.4811 28.4125 20.5918 28.4125 21.8H28.9125H29.4125C29.4125 20.7042 29.595 19.7243 29.9513 18.8533L29.4885 18.664ZM28.9125 21.8H28.4125C28.4125 22.9883 28.6145 24.0973 29.0243 25.1217L29.4885 24.936L29.9527 24.7503C29.5945 23.8547 29.4125 22.873 29.4125 21.8H28.9125ZM29.4885 24.936L29.0279 25.1305C29.4566 26.1458 30.0452 27.041 30.7937 27.8122L31.1525 27.464L31.5113 27.1158C30.8518 26.4363 30.3311 25.6462 29.9491 24.7415L29.4885 24.936ZM31.1525 27.464L30.7989 27.8176C31.5527 28.5713 32.4424 29.1521 33.4628 29.5602L33.6485 29.096L33.8342 28.6318C32.9346 28.2719 32.1603 27.7647 31.5061 27.1104L31.1525 27.464ZM33.6485 29.096L33.4628 29.5602C34.4872 29.97 35.5962 30.172 36.7845 30.172V29.672V29.172C35.7115 29.172 34.7298 28.99 33.8342 28.6318L33.6485 29.096ZM53.258 33H52.758V33.5H53.258V33ZM53.258 10.6V10.1H52.758V10.6H53.258ZM56.682 10.6L57.0697 10.2842L56.9196 10.1H56.682V10.6ZM70.73 27.848V28.348H71.7821L71.1177 27.5322L70.73 27.848ZM69.034 27.848H68.534V28.348H69.034V27.848ZM69.034 10.6V10.1H68.534V10.6H69.034ZM73.162 10.6H73.662V10.1H73.162V10.6ZM73.162 33V33.5H73.662V33H73.162ZM69.738 33L69.3503 33.3158L69.5004 33.5H69.738V33ZM55.69 15.752V15.252H54.6379L55.3023 16.0678L55.69 15.752ZM57.386 15.752H57.886V15.252H57.386V15.752ZM57.386 33V33.5H57.886V33H57.386ZM53.258 33H53.758V10.6H53.258H52.758V33H53.258ZM53.258 10.6V11.1H56.682V10.6V10.1H53.258V10.6ZM56.682 10.6L56.2943 10.9158L70.3423 28.1638L70.73 27.848L71.1177 27.5322L57.0697 10.2842L56.682 10.6ZM70.73 27.848V27.348H69.034V27.848V28.348H70.73V27.848ZM69.034 27.848H69.534V10.6H69.034H68.534V27.848H69.034ZM69.034 10.6V11.1H73.162V10.6V10.1H69.034V10.6ZM73.162 10.6H72.662V33H73.162H73.662V10.6H73.162ZM73.162 33V32.5H69.738V33V33.5H73.162V33ZM69.738 33L70.1257 32.6842L56.0777 15.4362L55.69 15.752L55.3023 16.0678L69.3503 33.3158L69.738 33ZM55.69 15.752V16.252H57.386V15.752V15.252H55.69V15.752ZM57.386 15.752H56.886V33H57.386H57.886V15.752H57.386ZM57.386 33V32.5H53.258V33V33.5H57.386V33ZM83.7083 33H83.2083V33.5H83.7083V33ZM83.7083 14.12H84.2083V13.62H83.7083V14.12ZM76.2842 14.12H75.7842V14.62H76.2842V14.12ZM76.2842 10.6V10.1H75.7842V10.6H76.2842ZM95.2923 10.6H95.7923V10.1H95.2923V10.6ZM95.2923 14.12V14.62H95.7923V14.12H95.2923ZM87.8682 14.12V13.62H87.3682V14.12H87.8682ZM87.8682 33V33.5H88.3682V33H87.8682ZM83.7083 33H84.2083V14.12H83.7083H83.2083V33H83.7083ZM83.7083 14.12V13.62H76.2842V14.12V14.62H83.7083V14.12ZM76.2842 14.12H76.7842V10.6H76.2842H75.7842V14.12H76.2842ZM76.2842 10.6V11.1H95.2923V10.6V10.1H76.2842V10.6ZM95.2923 10.6H94.7923V14.12H95.2923H95.7923V10.6H95.2923ZM95.2923 14.12V13.62H87.8682V14.12V14.62H95.2923V14.12ZM87.8682 14.12H87.3682V33H87.8682H88.3682V14.12H87.8682ZM87.8682 33V32.5H83.7083V33V33.5H87.8682V33ZM102.254 19.912V19.412H101.754V19.912H102.254ZM113.39 19.912H113.89V19.412H113.39V19.912ZM113.39 23.336V23.836H113.89V23.336H113.39ZM102.254 23.336H101.754V23.836H102.254V23.336ZM102.574 29.512H102.074V30.012H102.574V29.512ZM115.214 29.512H115.714V29.012H115.214V29.512ZM115.214 33V33.5H115.714V33H115.214ZM98.4143 33H97.9143V33.5H98.4143V33ZM98.4143 10.6V10.1H97.9143V10.6H98.4143ZM114.766 10.6H115.266V10.1H114.766V10.6ZM114.766 14.088V14.588H115.266V14.088H114.766ZM102.574 14.088V13.588H102.074V14.088H102.574ZM102.254 19.912V20.412H113.39V19.912V19.412H102.254V19.912ZM113.39 19.912H112.89V23.336H113.39H113.89V19.912H113.39ZM113.39 23.336V22.836H102.254V23.336V23.836H113.39V23.336ZM102.254 23.336H102.754V19.912H102.254H101.754V23.336H102.254ZM102.574 29.512V30.012H115.214V29.512V29.012H102.574V29.512ZM115.214 29.512H114.714V33H115.214H115.714V29.512H115.214ZM115.214 33V32.5H98.4143V33V33.5H115.214V33ZM98.4143 33H98.9143V10.6H98.4143H97.9143V33H98.4143ZM98.4143 10.6V11.1H114.766V10.6V10.1H98.4143V10.6ZM114.766 10.6H114.266V14.088H114.766H115.266V10.6H114.766ZM114.766 14.088V13.588H102.574V14.088V14.588H114.766V14.088ZM102.574 14.088H102.074V29.512H102.574H103.074V14.088H102.574ZM119.852 33H119.352V33.5H119.852V33ZM119.852 10.6V10.1H119.352V10.6H119.852ZM123.276 10.6L123.663 10.2842L123.513 10.1H123.276V10.6ZM137.324 27.848V28.348H138.376L137.711 27.5322L137.324 27.848ZM135.628 27.848H135.128V28.348H135.628V27.848ZM135.628 10.6V10.1H135.128V10.6H135.628ZM139.756 10.6H140.256V10.1H139.756V10.6ZM139.756 33V33.5H140.256V33H139.756ZM136.332 33L135.944 33.3158L136.094 33.5H136.332V33ZM122.284 15.752V15.252H121.232L121.896 16.0678L122.284 15.752ZM123.98 15.752H124.48V15.252H123.98V15.752ZM123.98 33V33.5H124.48V33H123.98ZM119.852 33H120.352V10.6H119.852H119.352V33H119.852ZM119.852 10.6V11.1H123.276V10.6V10.1H119.852V10.6ZM123.276 10.6L122.888 10.9158L136.936 28.1638L137.324 27.848L137.711 27.5322L123.663 10.2842L123.276 10.6ZM137.324 27.848V27.348H135.628V27.848V28.348H137.324V27.848ZM135.628 27.848H136.128V10.6H135.628H135.128V27.848H135.628ZM135.628 10.6V11.1H139.756V10.6V10.1H135.628V10.6ZM139.756 10.6H139.256V33H139.756H140.256V10.6H139.756ZM139.756 33V32.5H136.332V33V33.5H139.756V33ZM136.332 33L136.719 32.6842L122.671 15.4362L122.284 15.752L121.896 16.0678L135.944 33.3158L136.332 33ZM122.284 15.752V16.252H123.98V15.752V15.252H122.284V15.752ZM123.98 15.752H123.48V33H123.98H124.48V15.752H123.98ZM123.98 33V32.5H119.852V33V33.5H123.98V33ZM150.302 33H149.802V33.5H150.302V33ZM150.302 14.12H150.802V13.62H150.302V14.12ZM142.878 14.12H142.378V14.62H142.878V14.12ZM142.878 10.6V10.1H142.378V10.6H142.878ZM161.886 10.6H162.386V10.1H161.886V10.6ZM161.886 14.12V14.62H162.386V14.12H161.886ZM154.462 14.12V13.62H153.962V14.12H154.462ZM154.462 33V33.5H154.962V33H154.462ZM150.302 33H150.802V14.12H150.302H149.802V33H150.302ZM150.302 14.12V13.62H142.878V14.12V14.62H150.302V14.12ZM142.878 14.12H143.378V10.6H142.878H142.378V14.12H142.878ZM142.878 10.6V11.1H161.886V10.6V10.1H142.878V10.6ZM161.886 10.6H161.386V14.12H161.886H162.386V10.6H161.886ZM161.886 14.12V13.62H154.462V14.12V14.62H161.886V14.12ZM154.462 14.12H153.962V33H154.462H154.962V14.12H154.462ZM154.462 33V32.5H150.302V33V33.5H154.462V33Z" fill="url(#paint1_linear_33_2116)" mask="url(#path-1-outside-1_33_2116)"/>
<g filter="url(#filter0_dddddd_33_2116)">
<rect x="169.167" y="5.28552" width="27.0017" height="37.8023" rx="6" transform="rotate(2 169.167 5.28552)" stroke="#F5EEC8" stroke-width="0.5"/>
</g>
<g filter="url(#filter1_dddddd_33_2116)">
<rect x="170.536" y="2.61505" width="27.0017" height="37.8023" rx="6" transform="rotate(4.99999 170.536 2.61505)" stroke="#00ADB5" stroke-width="0.5"/>
</g>
<g filter="url(#filter2_dddddd_33_2116)">
<rect x="171.261" width="27.0017" height="37.8023" rx="6" transform="rotate(7.99998 171.261 0)" stroke="#F5EEC8" stroke-width="0.5"/>
</g>
<mask id="path-6-outside-2_33_2116" maskUnits="userSpaceOnUse" x="200" y="9" width="85" height="24" fill="black">
<rect fill="white" x="200" y="9" width="85" height="24"/>
<path d="M201.008 32V9.6H210.224C212.208 9.6 213.904 9.92 215.312 10.56C216.741 11.2 217.84 12.1173 218.608 13.312C219.376 14.5067 219.76 15.9253 219.76 17.568C219.76 19.2107 219.376 20.6293 218.608 21.824C217.84 22.9973 216.741 23.904 215.312 24.544C213.904 25.1627 212.208 25.472 210.224 25.472H203.312L205.168 23.584V32H201.008ZM215.664 32L210 23.872H214.448L220.144 32H215.664ZM205.168 24.032L203.312 22.048H210.032C211.867 22.048 213.243 21.6533 214.16 20.864C215.099 20.0747 215.568 18.976 215.568 17.568C215.568 16.1387 215.099 15.04 214.16 14.272C213.243 13.504 211.867 13.12 210.032 13.12H203.312L205.168 11.072V24.032ZM224.414 32V9.6H228.574V32H224.414ZM244.265 32.32C241.193 32.32 238.782 31.456 237.033 29.728C235.305 28 234.441 25.504 234.441 22.24V9.6H238.601V22.08C238.601 24.384 239.092 26.0587 240.073 27.104C241.076 28.1493 242.484 28.672 244.297 28.672C246.11 28.672 247.508 28.1493 248.489 27.104C249.47 26.0587 249.961 24.384 249.961 22.08V9.6H254.057V22.24C254.057 25.504 253.182 28 251.433 29.728C249.705 31.456 247.316 32.32 244.265 32.32ZM259.883 32V9.6H263.307L273.099 25.952H271.307L280.939 9.6H284.363L284.395 32H280.459L280.427 15.776H281.259L273.067 29.44H271.211L262.891 15.776H263.851V32H259.883Z"/>
</mask>
<path d="M201.008 32H200.508C200.508 32.2761 200.732 32.5 201.008 32.5V32ZM201.008 9.6V9.1C200.732 9.1 200.508 9.32386 200.508 9.6H201.008ZM215.312 10.56L215.105 11.0152L215.108 11.0163L215.312 10.56ZM218.608 13.312L219.029 13.0416V13.0416L218.608 13.312ZM218.608 21.824L219.026 22.0978L219.029 22.0944L218.608 21.824ZM215.312 24.544L215.513 25.0018L215.516 25.0003L215.312 24.544ZM203.312 25.472L202.955 25.1215C202.814 25.2651 202.773 25.4795 202.851 25.6653C202.929 25.8511 203.111 25.972 203.312 25.972V25.472ZM205.168 23.584H205.668C205.668 23.381 205.545 23.1981 205.357 23.1212C205.169 23.0444 204.954 23.0887 204.811 23.2335L205.168 23.584ZM205.168 32V32.5C205.444 32.5 205.668 32.2761 205.668 32H205.168ZM215.664 32L215.254 32.2859C215.347 32.42 215.5 32.5 215.664 32.5V32ZM210 23.872V23.372C209.814 23.372 209.643 23.4755 209.557 23.6406C209.471 23.8057 209.483 24.0051 209.59 24.1579L210 23.872ZM214.448 23.872L214.857 23.5851C214.764 23.4515 214.611 23.372 214.448 23.372V23.872ZM220.144 32V32.5C220.33 32.5 220.501 32.3962 220.588 32.2308C220.674 32.0654 220.66 31.8658 220.553 31.7131L220.144 32ZM205.168 24.032L204.803 24.3736C204.943 24.5235 205.161 24.5724 205.352 24.4971C205.543 24.4217 205.668 24.2373 205.668 24.032H205.168ZM203.312 22.048V21.548C203.113 21.548 202.933 21.6662 202.853 21.849C202.774 22.0317 202.811 22.2441 202.947 22.3896L203.312 22.048ZM214.16 20.864L213.838 20.4813L213.834 20.485L214.16 20.864ZM214.16 14.272L213.839 14.6554L213.843 14.659L214.16 14.272ZM203.312 13.12L202.942 12.7842C202.809 12.9308 202.775 13.1418 202.855 13.3226C202.935 13.5034 203.114 13.62 203.312 13.62V13.12ZM205.168 11.072H205.668C205.668 10.8653 205.541 10.6799 205.348 10.6055C205.155 10.5311 204.936 10.5831 204.798 10.7362L205.168 11.072ZM201.008 32H201.508V9.6H201.008H200.508V32H201.008ZM201.008 9.6V10.1H210.224V9.6V9.1H201.008V9.6ZM210.224 9.6V10.1C212.156 10.1 213.778 10.4118 215.105 11.0152L215.312 10.56L215.519 10.1048C214.03 9.42818 212.26 9.1 210.224 9.1V9.6ZM215.312 10.56L215.108 11.0163C216.458 11.6209 217.477 12.4777 218.187 13.5824L218.608 13.312L219.029 13.0416C218.203 11.757 217.025 10.7791 215.516 10.1037L215.312 10.56ZM218.608 13.312L218.187 13.5824C218.896 14.6844 219.26 16.0059 219.26 17.568H219.76H220.26C220.26 15.8448 219.856 14.3289 219.029 13.0416L218.608 13.312ZM219.76 17.568H219.26C219.26 19.1301 218.896 20.4516 218.187 21.5536L218.608 21.824L219.029 22.0944C219.856 20.8071 220.26 19.2912 220.26 17.568H219.76ZM218.608 21.824L218.19 21.5502C217.48 22.6343 216.46 23.482 215.108 24.0877L215.312 24.544L215.516 25.0003C217.022 24.326 218.2 23.3604 219.026 22.0978L218.608 21.824ZM215.312 24.544L215.111 24.0862C213.782 24.6702 212.158 24.972 210.224 24.972V25.472V25.972C212.258 25.972 214.026 25.6551 215.513 25.0018L215.312 24.544ZM210.224 25.472V24.972H203.312V25.472V25.972H210.224V25.472ZM203.312 25.472L203.669 25.8225L205.525 23.9345L205.168 23.584L204.811 23.2335L202.955 25.1215L203.312 25.472ZM205.168 23.584H204.668V32H205.168H205.668V23.584H205.168ZM205.168 32V31.5H201.008V32V32.5H205.168V32ZM215.664 32L216.074 31.7141L210.41 23.5861L210 23.872L209.59 24.1579L215.254 32.2859L215.664 32ZM210 23.872V24.372H214.448V23.872V23.372H210V23.872ZM214.448 23.872L214.039 24.1589L219.735 32.2869L220.144 32L220.553 31.7131L214.857 23.5851L214.448 23.872ZM220.144 32V31.5H215.664V32V32.5H220.144V32ZM205.168 24.032L205.533 23.6904L203.677 21.7064L203.312 22.048L202.947 22.3896L204.803 24.3736L205.168 24.032ZM203.312 22.048V22.548H210.032V22.048V21.548H203.312V22.048ZM210.032 22.048V22.548C211.927 22.548 213.441 22.142 214.486 21.243L214.16 20.864L213.834 20.485C213.044 21.1647 211.806 21.548 210.032 21.548V22.048ZM214.16 20.864L214.482 21.2467C215.551 20.3477 216.068 19.0992 216.068 17.568H215.568H215.068C215.068 18.8528 214.646 19.8016 213.838 20.4813L214.16 20.864ZM215.568 17.568H216.068C216.068 16.0185 215.553 14.7654 214.477 13.885L214.16 14.272L213.843 14.659C214.645 15.3146 215.068 16.2588 215.068 17.568H215.568ZM214.16 14.272L214.481 13.8886C213.437 13.0142 211.924 12.62 210.032 12.62V13.12V13.62C211.809 13.62 213.049 13.9938 213.839 14.6554L214.16 14.272ZM210.032 13.12V12.62H203.312V13.12V13.62H210.032V13.12ZM203.312 13.12L203.682 13.4558L205.538 11.4078L205.168 11.072L204.798 10.7362L202.942 12.7842L203.312 13.12ZM205.168 11.072H204.668V24.032H205.168H205.668V11.072H205.168ZM224.414 32H223.914C223.914 32.2761 224.138 32.5 224.414 32.5V32ZM224.414 9.6V9.1C224.138 9.1 223.914 9.32386 223.914 9.6H224.414ZM228.574 9.6H229.074C229.074 9.32386 228.85 9.1 228.574 9.1V9.6ZM228.574 32V32.5C228.85 32.5 229.074 32.2761 229.074 32H228.574ZM224.414 32H224.914V9.6H224.414H223.914V32H224.414ZM224.414 9.6V10.1H228.574V9.6V9.1H224.414V9.6ZM228.574 9.6H228.074V32H228.574H229.074V9.6H228.574ZM228.574 32V31.5H224.414V32V32.5H228.574V32ZM237.033 29.728L236.679 30.0816L236.682 30.0837L237.033 29.728ZM234.441 9.6V9.1C234.165 9.1 233.941 9.32386 233.941 9.6H234.441ZM238.601 9.6H239.101C239.101 9.32386 238.877 9.1 238.601 9.1V9.6ZM240.073 27.104L239.708 27.4462L239.712 27.4501L240.073 27.104ZM248.489 27.104L248.124 26.7618L248.489 27.104ZM249.961 9.6V9.1C249.685 9.1 249.461 9.32386 249.461 9.6H249.961ZM254.057 9.6H254.557C254.557 9.32386 254.333 9.1 254.057 9.1V9.6ZM251.433 29.728L251.082 29.3723L251.079 29.3744L251.433 29.728ZM244.265 32.32V31.82C241.29 31.82 239.018 30.9861 237.384 29.3723L237.033 29.728L236.682 30.0837C238.547 31.9259 241.096 32.82 244.265 32.82V32.32ZM237.033 29.728L237.387 29.3744C235.78 27.7684 234.941 25.4173 234.941 22.24H234.441H233.941C233.941 25.5907 234.83 28.2316 236.679 30.0816L237.033 29.728ZM234.441 22.24H234.941V9.6H234.441H233.941V22.24H234.441ZM234.441 9.6V10.1H238.601V9.6V9.1H234.441V9.6ZM238.601 9.6H238.101V22.08H238.601H239.101V9.6H238.601ZM238.601 22.08H238.101C238.101 24.4377 238.6 26.2658 239.708 27.4462L240.073 27.104L240.438 26.7618C239.583 25.8515 239.101 24.3303 239.101 22.08H238.601ZM240.073 27.104L239.712 27.4501C240.832 28.6173 242.384 29.172 244.297 29.172V28.672V28.172C242.583 28.172 241.32 27.6814 240.434 26.7579L240.073 27.104ZM244.297 28.672V29.172C246.21 29.172 247.754 28.6174 248.854 27.4462L248.489 27.104L248.124 26.7618C247.261 27.6812 246.011 28.172 244.297 28.172V28.672ZM248.489 27.104L248.854 27.4462C249.962 26.2658 250.461 24.4377 250.461 22.08H249.961H249.461C249.461 24.3303 248.979 25.8515 248.124 26.7618L248.489 27.104ZM249.961 22.08H250.461V9.6H249.961H249.461V22.08H249.961ZM249.961 9.6V10.1H254.057V9.6V9.1H249.961V9.6ZM254.057 9.6H253.557V22.24H254.057H254.557V9.6H254.057ZM254.057 22.24H253.557C253.557 25.4157 252.708 27.7659 251.082 29.3723L251.433 29.728L251.784 30.0837C253.657 28.2341 254.557 25.5923 254.557 22.24H254.057ZM251.433 29.728L251.079 29.3744C249.467 30.9866 247.218 31.82 244.265 31.82V32.32V32.82C247.413 32.82 249.943 31.9254 251.787 30.0816L251.433 29.728ZM259.883 32H259.383C259.383 32.2761 259.607 32.5 259.883 32.5V32ZM259.883 9.6V9.1C259.607 9.1 259.383 9.32386 259.383 9.6H259.883ZM263.307 9.6L263.736 9.34312C263.646 9.19231 263.483 9.1 263.307 9.1V9.6ZM273.099 25.952V26.452C273.279 26.452 273.445 26.3552 273.534 26.1985C273.623 26.0419 273.62 25.8496 273.528 25.6951L273.099 25.952ZM271.307 25.952L270.876 25.6982C270.785 25.8528 270.784 26.0443 270.873 26.2001C270.962 26.3559 271.128 26.452 271.307 26.452V25.952ZM280.939 9.6V9.1C280.762 9.1 280.598 9.19366 280.508 9.34623L280.939 9.6ZM284.363 9.6L284.863 9.59928C284.863 9.32342 284.639 9.1 284.363 9.1V9.6ZM284.395 32V32.5C284.528 32.5 284.655 32.4472 284.749 32.3533C284.843 32.2594 284.895 32.132 284.895 31.9993L284.395 32ZM280.459 32L279.959 32.001C279.96 32.2767 280.183 32.5 280.459 32.5V32ZM280.427 15.776V15.276C280.294 15.276 280.167 15.3288 280.073 15.4228C279.979 15.5168 279.927 15.6442 279.927 15.777L280.427 15.776ZM281.259 15.776L281.688 16.0331C281.78 15.8786 281.783 15.6863 281.694 15.5296C281.605 15.3729 281.439 15.276 281.259 15.276V15.776ZM273.067 29.44V29.94C273.243 29.94 273.405 29.8478 273.496 29.6971L273.067 29.44ZM271.211 29.44L270.784 29.7C270.875 29.8491 271.037 29.94 271.211 29.94V29.44ZM262.891 15.776V15.276C262.71 15.276 262.544 15.3735 262.455 15.5311C262.367 15.6886 262.37 15.8817 262.464 16.036L262.891 15.776ZM263.851 15.776H264.351C264.351 15.4999 264.127 15.276 263.851 15.276V15.776ZM263.851 32V32.5C264.127 32.5 264.351 32.2761 264.351 32H263.851ZM259.883 32H260.383V9.6H259.883H259.383V32H259.883ZM259.883 9.6V10.1H263.307V9.6V9.1H259.883V9.6ZM263.307 9.6L262.878 9.85688L272.67 26.2089L273.099 25.952L273.528 25.6951L263.736 9.34312L263.307 9.6ZM273.099 25.952V25.452H271.307V25.952V26.452H273.099V25.952ZM271.307 25.952L271.738 26.2058L281.37 9.85377L280.939 9.6L280.508 9.34623L270.876 25.6982L271.307 25.952ZM280.939 9.6V10.1H284.363V9.6V9.1H280.939V9.6ZM284.363 9.6L283.863 9.60071L283.895 32.0007L284.395 32L284.895 31.9993L284.863 9.59928L284.363 9.6ZM284.395 32V31.5H280.459V32V32.5H284.395V32ZM280.459 32L280.959 31.999L280.927 15.775L280.427 15.776L279.927 15.777L279.959 32.001L280.459 32ZM280.427 15.776V16.276H281.259V15.776V15.276H280.427V15.776ZM281.259 15.776L280.83 15.5189L272.638 29.1829L273.067 29.44L273.496 29.6971L281.688 16.0331L281.259 15.776ZM273.067 29.44V28.94H271.211V29.44V29.94H273.067V29.44ZM271.211 29.44L271.638 29.18L263.318 15.516L262.891 15.776L262.464 16.036L270.784 29.7L271.211 29.44ZM262.891 15.776V16.276H263.851V15.776V15.276H262.891V15.776ZM263.851 15.776H263.351V32H263.851H264.351V15.776H263.851ZM263.851 32V31.5H259.883V32V32.5H263.851V32Z" fill="url(#paint2_linear_33_2116)" mask="url(#path-6-outside-2_33_2116)"/>
<mask id="mask0_33_2116" style="mask-type:alpha" maskUnits="userSpaceOnUse" x="243" y="1" width="52" height="43">
<ellipse cx="268.947" cy="22.9785" rx="25.5" ry="21" fill="url(#paint3_linear_33_2116)"/>
</mask>
<g mask="url(#mask0_33_2116)">
<path d="M201.008 31.8398V9.43984H210.224C212.208 9.43984 213.904 9.75984 215.312 10.3998C216.741 11.0398 217.84 11.9572 218.608 13.1518C219.376 14.3465 219.76 15.7652 219.76 17.4078C219.76 19.0505 219.376 20.4692 218.608 21.6638C217.84 22.8372 216.741 23.7438 215.312 24.3838C213.904 25.0025 212.208 25.3118 210.224 25.3118H203.312L205.168 23.4238V31.8398H201.008ZM215.664 31.8398L210 23.7118H214.448L220.144 31.8398H215.664ZM205.168 23.8718L203.312 21.8878H210.032C211.867 21.8878 213.243 21.4932 214.16 20.7038C215.099 19.9145 215.568 18.8158 215.568 17.4078C215.568 15.9785 215.099 14.8798 214.16 14.1118C213.243 13.3438 211.867 12.9598 210.032 12.9598H203.312L205.168 10.9118V23.8718ZM224.414 31.8398V9.43984H228.574V31.8398H224.414ZM244.265 32.1598C241.193 32.1598 238.782 31.2958 237.033 29.5678C235.305 27.8398 234.441 25.3438 234.441 22.0798V9.43984H238.601V21.9198C238.601 24.2238 239.092 25.8985 240.073 26.9438C241.076 27.9892 242.484 28.5118 244.297 28.5118C246.11 28.5118 247.508 27.9892 248.489 26.9438C249.47 25.8985 249.961 24.2238 249.961 21.9198V9.43984H254.057V22.0798C254.057 25.3438 253.182 27.8398 251.433 29.5678C249.705 31.2958 247.316 32.1598 244.265 32.1598ZM259.883 31.8398V9.43984H263.307L273.099 25.7918H271.307L280.939 9.43984H284.363L284.395 31.8398H280.459L280.427 15.6158H281.259L273.067 29.2798H271.211L262.891 15.6158H263.851V31.8398H259.883Z" fill="url(#paint4_linear_33_2116)"/>
</g>
</g>
<defs>
<filter id="filter0_dddddd_33_2116" x="2.34009" y="-160.222" width="359.32" height="369.737" filterUnits="userSpaceOnUse" color-interpolation-filters="sRGB">
<feFlood flood-opacity="0" result="BackgroundImageFix"/>
<feColorMatrix in="SourceAlpha" type="matrix" values="0 0 0 0 0 0 0 0 0 0 0 0 0 0 0 0 0 0 127 0" result="hardAlpha"/>
<feOffset/>
<feGaussianBlur stdDeviation="1.9698"/>
<feColorMatrix type="matrix" values="0 0 0 0 1 0 0 0 0 1 0 0 0 0 1 0 0 0 1 0"/>
<feBlend mode="normal" in2="BackgroundImageFix" result="effect1_dropShadow_33_2116"/>
<feColorMatrix in="SourceAlpha" type="matrix" values="0 0 0 0 0 0 0 0 0 0 0 0 0 0 0 0 0 0 127 0" result="hardAlpha"/>
<feOffset/>
<feGaussianBlur stdDeviation="3.9396"/>
<feColorMatrix type="matrix" values="0 0 0 0 1 0 0 0 0 1 0 0 0 0 1 0 0 0 1 0"/>
<feBlend mode="normal" in2="effect1_dropShadow_33_2116" result="effect2_dropShadow_33_2116"/>
<feColorMatrix in="SourceAlpha" type="matrix" values="0 0 0 0 0 0 0 0 0 0 0 0 0 0 0 0 0 0 127 0" result="hardAlpha"/>
<feOffset/>
<feGaussianBlur stdDeviation="13.7886"/>
<feColorMatrix type="matrix" values="0 0 0 0 1 0 0 0 0 1 0 0 0 0 1 0 0 0 1 0"/>
<feBlend mode="normal" in2="effect2_dropShadow_33_2116" result="effect3_dropShadow_33_2116"/>
<feColorMatrix in="SourceAlpha" type="matrix" values="0 0 0 0 0 0 0 0 0 0 0 0 0 0 0 0 0 0 127 0" result="hardAlpha"/>
<feOffset/>
<feGaussianBlur stdDeviation="27.5772"/>
<feColorMatrix type="matrix" values="0 0 0 0 1 0 0 0 0 1 0 0 0 0 1 0 0 0 1 0"/>
<feBlend mode="normal" in2="effect3_dropShadow_33_2116" result="effect4_dropShadow_33_2116"/>
<feColorMatrix in="SourceAlpha" type="matrix" values="0 0 0 0 0 0 0 0 0 0 0 0 0 0 0 0 0 0 127 0" result="hardAlpha"/>
<feOffset/>
<feGaussianBlur stdDeviation="47.2752"/>
<feColorMatrix type="matrix" values="0 0 0 0 1 0 0 0 0 1 0 0 0 0 1 0 0 0 1 0"/>
<feBlend mode="normal" in2="effect4_dropShadow_33_2116" result="effect5_dropShadow_33_2116"/>
<feColorMatrix in="SourceAlpha" type="matrix" values="0 0 0 0 0 0 0 0 0 0 0 0 0 0 0 0 0 0 127 0" result="hardAlpha"/>
<feOffset/>
<feGaussianBlur stdDeviation="82.7316"/>
<feColorMatrix type="matrix" values="0 0 0 0 1 0 0 0 0 1 0 0 0 0 1 0 0 0 1 0"/>
<feBlend mode="normal" in2="effect5_dropShadow_33_2116" result="effect6_dropShadow_33_2116"/>
<feBlend mode="normal" in="SourceGraphic" in2="effect6_dropShadow_33_2116" result="shape"/>
</filter>
<filter id="filter1_dddddd_33_2116" x="157.215" y="-7.41055" width="50.2448" height="60.063" filterUnits="userSpaceOnUse" color-interpolation-filters="sRGB">
<feFlood flood-opacity="0" result="BackgroundImageFix"/>
<feColorMatrix in="SourceAlpha" type="matrix" values="0 0 0 0 0 0 0 0 0 0 0 0 0 0 0 0 0 0 127 0" result="hardAlpha"/>
<feOffset/>
<feGaussianBlur stdDeviation="0.122325"/>
<feColorMatrix type="matrix" values="0 0 0 0 0 0 0 0 0 0.678431 0 0 0 0 0.709804 0 0 0 1 0"/>
<feBlend mode="normal" in2="BackgroundImageFix" result="effect1_dropShadow_33_2116"/>
<feColorMatrix in="SourceAlpha" type="matrix" values="0 0 0 0 0 0 0 0 0 0 0 0 0 0 0 0 0 0 127 0" result="hardAlpha"/>
<feOffset/>
<feGaussianBlur stdDeviation="0.24465"/>
<feColorMatrix type="matrix" values="0 0 0 0 0 0 0 0 0 0.678431 0 0 0 0 0.709804 0 0 0 1 0"/>
<feBlend mode="normal" in2="effect1_dropShadow_33_2116" result="effect2_dropShadow_33_2116"/>
<feColorMatrix in="SourceAlpha" type="matrix" values="0 0 0 0 0 0 0 0 0 0 0 0 0 0 0 0 0 0 127 0" result="hardAlpha"/>
<feOffset/>
<feGaussianBlur stdDeviation="0.856275"/>
<feColorMatrix type="matrix" values="0 0 0 0 0 0 0 0 0 0.678431 0 0 0 0 0.709804 0 0 0 1 0"/>
<feBlend mode="normal" in2="effect2_dropShadow_33_2116" result="effect3_dropShadow_33_2116"/>
<feColorMatrix in="SourceAlpha" type="matrix" values="0 0 0 0 0 0 0 0 0 0 0 0 0 0 0 0 0 0 127 0" result="hardAlpha"/>
<feOffset/>
<feGaussianBlur stdDeviation="1.71255"/>
<feColorMatrix type="matrix" values="0 0 0 0 0 0 0 0 0 0.678431 0 0 0 0 0.709804 0 0 0 1 0"/>
<feBlend mode="normal" in2="effect3_dropShadow_33_2116" result="effect4_dropShadow_33_2116"/>
<feColorMatrix in="SourceAlpha" type="matrix" values="0 0 0 0 0 0 0 0 0 0 0 0 0 0 0 0 0 0 127 0" result="hardAlpha"/>
<feOffset/>
<feGaussianBlur stdDeviation="2.9358"/>
<feColorMatrix type="matrix" values="0 0 0 0 0 0 0 0 0 0.678431 0 0 0 0 0.709804 0 0 0 1 0"/>
<feBlend mode="normal" in2="effect4_dropShadow_33_2116" result="effect5_dropShadow_33_2116"/>
<feColorMatrix in="SourceAlpha" type="matrix" values="0 0 0 0 0 0 0 0 0 0 0 0 0 0 0 0 0 0 127 0" result="hardAlpha"/>
<feOffset/>
<feGaussianBlur stdDeviation="5.13765"/>
<feColorMatrix type="matrix" values="0 0 0 0 0 0 0 0 0 0.678431 0 0 0 0 0.709804 0 0 0 1 0"/>
<feBlend mode="normal" in2="effect5_dropShadow_33_2116" result="effect6_dropShadow_33_2116"/>
<feBlend mode="normal" in="SourceGraphic" in2="effect6_dropShadow_33_2116" result="shape"/>
</filter>
<filter id="filter2_dddddd_33_2116" x="144.233" y="-21.7667" width="75.5334" height="84.7257" filterUnits="userSpaceOnUse" color-interpolation-filters="sRGB">
<feFlood flood-opacity="0" result="BackgroundImageFix"/>
<feColorMatrix in="SourceAlpha" type="matrix" values="0 0 0 0 0 0 0 0 0 0 0 0 0 0 0 0 0 0 127 0" result="hardAlpha"/>
<feOffset/>
<feGaussianBlur stdDeviation="0.265388"/>
<feColorMatrix type="matrix" values="0 0 0 0 1 0 0 0 0 1 0 0 0 0 1 0 0 0 1 0"/>
<feBlend mode="normal" in2="BackgroundImageFix" result="effect1_dropShadow_33_2116"/>
<feColorMatrix in="SourceAlpha" type="matrix" values="0 0 0 0 0 0 0 0 0 0 0 0 0 0 0 0 0 0 127 0" result="hardAlpha"/>
<feOffset/>
<feGaussianBlur stdDeviation="0.530775"/>
<feColorMatrix type="matrix" values="0 0 0 0 1 0 0 0 0 1 0 0 0 0 1 0 0 0 1 0"/>
<feBlend mode="normal" in2="effect1_dropShadow_33_2116" result="effect2_dropShadow_33_2116"/>
<feColorMatrix in="SourceAlpha" type="matrix" values="0 0 0 0 0 0 0 0 0 0 0 0 0 0 0 0 0 0 127 0" result="hardAlpha"/>
<feOffset/>
<feGaussianBlur stdDeviation="1.85771"/>
<feColorMatrix type="matrix" values="0 0 0 0 1 0 0 0 0 1 0 0 0 0 1 0 0 0 1 0"/>
<feBlend mode="normal" in2="effect2_dropShadow_33_2116" result="effect3_dropShadow_33_2116"/>
<feColorMatrix in="SourceAlpha" type="matrix" values="0 0 0 0 0 0 0 0 0 0 0 0 0 0 0 0 0 0 127 0" result="hardAlpha"/>
<feOffset/>
<feGaussianBlur stdDeviation="3.71543"/>
<feColorMatrix type="matrix" values="0 0 0 0 1 0 0 0 0 1 0 0 0 0 1 0 0 0 1 0"/>
<feBlend mode="normal" in2="effect3_dropShadow_33_2116" result="effect4_dropShadow_33_2116"/>
<feColorMatrix in="SourceAlpha" type="matrix" values="0 0 0 0 0 0 0 0 0 0 0 0 0 0 0 0 0 0 127 0" result="hardAlpha"/>
<feOffset/>
<feGaussianBlur stdDeviation="6.3693"/>
<feColorMatrix type="matrix" values="0 0 0 0 1 0 0 0 0 1 0 0 0 0 1 0 0 0 1 0"/>
<feBlend mode="normal" in2="effect4_dropShadow_33_2116" result="effect5_dropShadow_33_2116"/>
<feColorMatrix in="SourceAlpha" type="matrix" values="0 0 0 0 0 0 0 0 0 0 0 0 0 0 0 0 0 0 127 0" result="hardAlpha"/>
<feOffset/>
<feGaussianBlur stdDeviation="11.1463"/>
<feColorMatrix type="matrix" values="0 0 0 0 1 0 0 0 0 1 0 0 0 0 1 0 0 0 1 0"/>
<feBlend mode="normal" in2="effect5_dropShadow_33_2116" result="effect6_dropShadow_33_2116"/>
<feBlend mode="normal" in="SourceGraphic" in2="effect6_dropShadow_33_2116" result="shape"/>
</filter>
<linearGradient id="paint0_linear_33_2116" x1="0" y1="21.5" x2="162" y2="21.5" gradientUnits="userSpaceOnUse">
<stop stop-color="#03212E"/>
<stop offset="1" stop-color="#2F8585"/>
</linearGradient>
<linearGradient id="paint1_linear_33_2116" x1="0" y1="21.5" x2="162" y2="21.5" gradientUnits="userSpaceOnUse">
<stop stop-color="#00ADB5"/>
<stop offset="1" stop-color="#FFC107"/>
</linearGradient>
<linearGradient id="paint2_linear_33_2116" x1="198" y1="20.5" x2="288" y2="20.5" gradientUnits="userSpaceOnUse">
<stop stop-color="#B39554"/>
<stop offset="1" stop-color="#FFC107"/>
</linearGradient>
<linearGradient id="paint3_linear_33_2116" x1="286.842" y1="8.74994" x2="252.74" y2="49.262" gradientUnits="userSpaceOnUse">
<stop stop-color="#A1692D"/>
<stop offset="1" stop-color="#CE9740"/>
</linearGradient>
<linearGradient id="paint4_linear_33_2116" x1="274.579" y1="7.1276" x2="250.779" y2="60.8597" gradientUnits="userSpaceOnUse">
<stop stop-color="#A1692D"/>
<stop offset="1" stop-color="#CE9740"/>
</linearGradient>
<clipPath id="clip0_33_2116">
<rect width="294.447" height="44.0071" fill="white"/>
</clipPath>
</defs>
</svg>
